HIERARCHY
ROOT simHips
{
  OFFSET 6.13146 95.3961 -0.669452
  CHANNELS 6 Xposition Yposition Zposition Zrotation Xrotation Yrotation
  JOINT simSpine
  {
    OFFSET -0.000360269 21.3001 -0.0169217
    CHANNELS 3 Zrotation Xrotation Yrotation
    JOINT simLeftArm
    {
      OFFSET 13.5181 21.3012 -2.3511e-005
      CHANNELS 3 Zrotation Xrotation Yrotation
      JOINT simLeftForeArm
      {
        OFFSET 24.5783 0 -6.3921e-005
        CHANNELS 3 Zrotation Xrotation Yrotation
        JOINT simLeftHand
        {
          OFFSET 24.5783 0 0
          CHANNELS 3 Zrotation Xrotation Yrotation
          End Site
          {
            OFFSET 7.32568 1.52588e-005 0.0169305
          }
        }
      }
    }
    JOINT simHead
    {
      OFFSET 0 27.4458 -0.00488811
      CHANNELS 3 Zrotation Xrotation Yrotation
      End Site
      {
        OFFSET 0 0 0
      }
    }
    JOINT simRightArm
    {
      OFFSET -13.5174 21.3012 -1.52733e-005
      CHANNELS 3 Zrotation Xrotation Yrotation
      JOINT simRightForeArm
      {
        OFFSET -24.5783 -0.000552281 0.000112897
        CHANNELS 3 Zrotation Xrotation Yrotation
        JOINT simRightHand
        {
          OFFSET -24.5783 0 1.19926e-005
          CHANNELS 3 Zrotation Xrotation Yrotation
          End Site
          {
            OFFSET -7.32568 1.52588e-005 0.0169305
          }
        }
      }
    }
  }
  JOINT simRightUpLeg
  {
    OFFSET -8.44614 -9.41038 0.835682
    CHANNELS 3 Zrotation Xrotation Yrotation
    JOINT simRightLeg
    {
      OFFSET -3.23466e-005 -40.9639 0
      CHANNELS 3 Zrotation Xrotation Yrotation
      JOINT simRightFoot
      {
        OFFSET 0 -40.9639 0
        CHANNELS 3 Zrotation Xrotation Yrotation
        End Site
        {
          OFFSET 0.50614 -9.67405 14.6709
        }
      }
    }
  }
  JOINT simLeftUpLeg
  {
    OFFSET 8.44614 -9.41038 0.835681
    CHANNELS 3 Zrotation Xrotation Yrotation
    JOINT simLeftLeg
    {
      OFFSET -0.00018133 -40.964 6.2497e-005
      CHANNELS 3 Zrotation Xrotation Yrotation
      JOINT simLeftFoot
      {
        OFFSET 0 -40.9639 0
        CHANNELS 3 Zrotation Xrotation Yrotation
        End Site
        {
          OFFSET -0.50614 -9.67405 14.6709
        }
      }
    }
  }
}
MOTION
Frames:	16
Frame Time:	0.0333333
1.76639 99.9207 81.1796 8.87709 15.0801 -45.3681 2.41884 2.31018 8.74736 -60.5943 -14.9654 7.54902 7.86438e-005 7.93816e-006 -82.2013 -28.9161 -42.5946 -44.3342 1.46736 -11.8591 14.2321 65.7036 5.76922 42.2958 1.55302e-005 -4.32271e-006 106.457 164.624 -12.2681 -160.297 -17.6634 -16.7802 -21.5552 -0.00666311 18.8461 0.0361005 20.2499 -11.7839 4.23822 36.7764 -38.1528 36.0429 0.00660504 36.9594 -0.025562 -14.8675 -4.01051 -3.54471 
2.58196 99.7817 80.9659 9.82081 16.4125 -46.1357 1.65338 3.57571 8.94038 -60.6161 -15.6992 7.26702 7.8609e-005 8.1878e-006 -81.9544 -29.1644 -42.6534 -44.8881 1.28422 -13.8042 14.6532 65.9338 6.15291 43.3168 1.54872e-005 -4.17409e-006 105.876 165.255 -13.194 -159.952 -17.7938 -19.2528 -21.7052 -0.00517064 19.3272 0.0307254 20.593 -11.3888 4.18968 38.4692 -39.9182 38.1985 0.00339657 37.6098 -0.0199264 -14.5694 -3.99776 -3.51887 
3.40322 99.6384 80.771 10.7692 17.7021 -46.9863 0.904637 4.81476 9.13416 -60.5772 -16.393 7.01922 7.85691e-005 8.46535e-006 -81.6798 -29.3222 -42.8049 -45.2759 1.12117 -15.7755 15.2491 66.0143 6.58152 44.4874 1.54225e-005 -3.93948e-006 104.962 165.933 -13.9717 -160.359 -17.9209 -21.702 -21.8119 -0.00348554 19.7829 0.0250663 20.9178 -10.9647 4.1364 40.2817 -41.5419 40.4889 -0.000114139 38.2198 -0.0139813 -14.2457 -3.98734 -3.49216 
4.17727 99.4796 80.6117 11.6758 18.9504 -47.8233 0.194584 5.99012 9.28399 -60.5309 -16.9135 6.75918 7.85024e-005 8.90993e-006 -81.2395 -29.7903 -42.9236 -45.8447 1.32755 -17.5457 15.8806 66.0481 7.00905 45.6834 1.53508e-005 -3.66067e-006 103.881 166.588 -14.6975 -160.889 -18.0242 -24.0532 -21.9528 -0.0017212 20.2591 0.0194057 21.2322 -10.5765 4.10468 42.2 -43.059 42.7707 0.000292471 38.8457 -0.0077715 -13.9201 -3.98753 -3.43142 
4.89888 99.2967 80.5085 12.5818 20.1252 -48.7548 -0.442508 6.99436 9.50017 -60.5462 -17.3451 6.6051 7.84243e-005 9.4025e-006 -80.751 -30.2916 -43.1888 -46.0039 1.67443 -18.8925 16.4518 66.0555 7.51063 46.7915 1.52781e-005 -3.35279e-006 102.693 166.746 -15.1472 -161.057 -18.1367 -26.3725 -22.0427 5.28602e-005 20.8206 0.0139135 21.5416 -10.2451 4.10927 44.244 -44.4272 45.0841 0.00271787 39.5685 -0.00135677 -13.6213 -4.05867 -3.30389 
5.55802 99.0961 80.4549 13.4501 21.1656 -49.7265 -1.03197 7.89299 9.70047 -60.7126 -17.7917 6.44628 7.83059e-005 1.01027e-005 -80.0555 -30.1244 -43.0532 -45.8038 1.96731 -19.9618 16.927 65.9728 8.10413 47.8028 1.52071e-005 -3.02044e-006 101.417 166.499 -15.6562 -160.991 -18.2602 -28.5507 -22.0834 0.000815721 21.4118 0.00882353 21.8578 -9.96679 4.14212 46.3115 -45.6174 47.317 0.00223545 40.3846 0.00497388 -13.377 -4.18788 -3.11495 
6.14443 98.8765 80.4533 14.3129 21.9842 -50.7195 -1.64344 8.69435 9.88962 -60.9473 -18.1644 6.28054 7.81309e-005 1.10544e-005 -79.1078 -30.5971 -42.9891 -46.6526 2.32776 -20.8502 17.4847 65.8574 8.68654 48.3411 1.51571e-005 -2.76159e-006 100.427 166.55 -17.0652 -160.776 -18.4944 -30.5354 -22.1115 0.00143454 22.0435 0.00404189 22.2051 -9.7598 4.23425 48.2737 -46.6019 49.439 -0.00885326 41.3068 0.0108605 -13.1896 -4.39614 -2.90426 
6.63436 98.6488 80.4952 15.1197 22.6363 -51.6614 -2.18506 9.33205 10.0879 -61.2002 -18.3511 6.11304 7.79152e-005 1.21218e-005 -78.0412 -31.4644 -42.8602 -47.7996 2.59243 -21.1504 18.0816 65.7695 9.13071 48.3896 1.51147e-005 -2.52042e-006 99.5076 167.049 -18.0968 -161.183 -18.7963 -32.3129 -22.1989 0.00165531 22.7425 0.000464987 22.604 -9.6492 4.41152 50.1215 -47.3842 51.3728 -0.0607264 42.2569 0.0159175 -13.0642 -4.6567 -2.6662 
7.01862 98.4199 80.5762 15.8065 23.1273 -52.4296 -2.58449 9.87547 10.2271 -61.4747 -18.3007 6.01631 7.77212e-005 1.3004e-005 -77.1566 -31.6282 -42.3732 -48.3259 2.59817 -21.1632 18.5209 65.6533 9.45056 48.1661 1.50898e-005 -2.36652e-006 98.9222 167.442 -18.4197 -160.866 -19.1699 -33.796 -22.4327 0.00128728 23.4924 -0.00127093 22.9939 -9.62402 4.6704 51.632 -48.0865 52.9286 -0.0308528 43.179 0.0183709 -12.9789 -4.93492 -2.4548 
7.26128 98.2037 80.688 16.3105 23.4328 -52.8992 -2.91724 10.3446 10.2051 -61.7586 -18.1085 5.97336 7.75598e-005 1.36926e-005 -76.4638 -31.2957 -41.8772 -47.5026 2.45298 -21.0434 18.7873 65.6135 9.60523 47.7016 1.50777e-005 -2.28848e-006 98.6256 167.476 -17.8449 -159.8 -19.6383 -34.9389 -22.8449 0.000762434 24.3904 -0.00213383 23.2046 -9.72083 4.97493 52.7216 -48.6608 54.0449 0.00732391 44.0012 0.0203571 -12.9169 -5.18129 -2.34607 
7.36929 98.0172 80.8115 16.6351 23.5528 -53.1498 -3.16669 10.6226 9.99507 -61.979 -17.7975 6.08109 7.74211e-005 1.42568e-005 -75.8949 -30.9292 -41.5268 -46.2988 2.17281 -20.6412 18.7108 65.6966 9.64506 46.7997 1.50705e-005 -2.24038e-006 98.443 167.724 -16.6281 -158.694 -20.1464 -35.7619 -23.3091 0.000187718 25.3887 -0.0022339 23.2667 -9.92292 5.29688 53.4227 -49.0266 54.7637 0.00742566 44.6988 0.0218099 -12.884 -5.39637 -2.31399 
7.35326 97.8919 80.9167 16.7037 23.4845 -53.1612 -3.19474 10.9202 9.77729 -62.2553 -17.1523 6.22148 7.73154e-005 1.46711e-005 -75.4761 -30.7873 -41.0772 -46.2726 1.59641 -20.02 18.3964 65.7818 9.47089 45.4762 1.50622e-005 -2.18373e-006 98.228 168.422 -17.2266 -159.021 -20.6024 -36.1635 -23.7302 -0.000334058 26.4002 -0.00167846 23.212 -10.2192 5.59981 53.5752 -49.1539 54.8803 0.0059739 45.1942 0.0226414 -12.89 -5.58409 -2.3265 
7.18772 97.815 80.9961 16.5363 23.2149 -52.9782 -3.22663 11.255 9.50352 -62.5412 -16.4085 6.31165 7.72196e-005 1.5036e-005 -75.1066 -30.4318 -40.347 -46.879 1.34606 -19.5901 18.2208 65.835 9.18089 43.9952 1.50588e-005 -2.15981e-006 98.1373 168.788 -17.6885 -159.946 -20.9599 -36.1841 -23.9796 -0.000163255 27.4387 -0.000577749 23.0398 -10.6426 5.82658 53.2575 -49.0169 54.5058 -0.000199421 45.5198 0.0228107 -12.9476 -5.73902 -2.41056 
6.87094 97.7592 81.0495 16.1567 22.7567 -52.6018 -3.21098 11.5854 9.20954 -62.7888 -15.7101 6.41537 7.71835e-005 1.51709e-005 -74.9697 -30.013 -39.7576 -46.7104 1.2425 -19.2226 18.0728 65.9632 8.72617 42.5923 1.50609e-005 -2.17439e-006 98.1926 169.169 -17.6762 -160.219 -21.2373 -35.8853 -24.0702 -0.000248343 28.5617 0.00234213 22.7779 -11.2217 5.98087 52.5963 -48.6613 53.7461 -0.0168772 45.7473 0.0223046 -13.0597 -5.83901 -2.57467 
6.45181 97.7203 81.1045 15.5956 22.1602 -52.0533 -3.04613 11.8561 8.8907 -62.977 -15.0747 6.57876 7.72274e-005 1.50066e-005 -75.1363 -29.5404 -39.5345 -45.4916 1.05527 -18.9884 18.012 66.0835 8.28528 41.0647 1.50838e-005 -2.3281e-006 98.7762 168.902 -17.7531 -158.715 -21.416 -35.2955 -24.0655 -0.000266517 29.6803 0.00536218 22.3771 -11.8699 6.07424 51.607 -48.1725 52.6065 0.013773 45.8636 0.0210847 -13.2055 -5.89137 -2.79124 
5.95512 97.6924 81.162 14.9048 21.4216 -51.3842 -2.81932 12.0078 8.51739 -63.1907 -14.5025 6.68471 7.72509e-005 1.49178e-005 -75.2263 -29.6359 -39.2343 -44.8475 0.908211 -18.5529 17.9177 66.2755 7.84998 39.377 1.51106e-005 -2.49584e-006 99.414 168.543 -17.9832 -157.98 -21.5586 -34.4485 -23.9839 -0.000248759 30.7793 0.00846289 22.0319 -12.5945 6.14365 50.4083 -47.5004 51.2028 0.00157521 45.8927 0.0191344 -13.4055 -5.94242 -3.03215 
